<svg width="30" height="30" fill="none" xmlns="http://www.w3.org/2000/svg"><g clip-path="url(#a)"><path d="M15.1 30c8.3 0 15-6.7 15-15s-6.7-15-15-15S.1 6.7.1 15c-.1 8.3 6.7 15 15 15Z" fill="#FED42B"/><mask id="b" style="mask-type:luminance" maskUnits="userSpaceOnUse" x="0" y="0" width="31" height="30"><path d="M15.1 30c8.3 0 15-6.7 15-15s-6.7-15-15-15S.1 6.7.1 15c-.1 8.3 6.7 15 15 15Z" fill="#fff"/></mask><g mask="url(#b)"><path d="M7.7 8.2-5.5 25.5l3.5 4 9.8-13-1 7.1 5.5 1.9L19 14.8c-.3 2-.8 6.6 3.6 8 6.9 2.1 12.9-10.3 15.7-16.6l-4-2.1c-3.1 6.5-7.9 13.7-9.8 13.2-1.9-.5-.2-6.6.9-10.5v-.1l-6.1-2.1L12 16.5l1-6.5-5.3-1.8Z" fill="#000"/></g></g><defs><clipPath id="a"><path fill="#fff" d="M0 0h30v30H0z"/></clipPath></defs></svg>