<svg width="30" height="30" viewBox="0 0 30 30" fill="none" xmlns="http://www.w3.org/2000/svg">
<g clip-path="url(#clip0_209_85)">
<path d="M15.1002 30C23.4002 30 30.1002 23.3 30.1002 15C30.1002 6.7 23.4002 0 15.1002 0C6.80021 0 0.10021 6.7 0.10021 15C0.000210112 23.3 6.80021 30 15.1002 30Z" fill="#FED42B"/>
<mask id="mask0_209_85" style="mask-type:luminance" maskUnits="userSpaceOnUse" x="0" y="0" width="31" height="30">
<path d="M15.1002 30C23.4002 30 30.1002 23.3 30.1002 15C30.1002 6.7 23.4002 0 15.1002 0C6.80021 0 0.10021 6.7 0.10021 15C0.000210112 23.3 6.80021 30 15.1002 30Z" fill="white"/>
</mask>
<g mask="url(#mask0_209_85)">
<path d="M7.7 8.2001L-5.5 25.5001L-2 29.5001L7.8 16.5001L6.8 23.6001L12.3 25.5001L19 14.8001C18.7 16.8001 18.2 21.4001 22.6 22.8001C29.5 24.9001 35.5 12.5001 38.3 6.2001L34.3 4.1001C31.2 10.6001 26.4 17.8001 24.5 17.3001C22.6 16.8001 24.3 10.7001 25.4 6.8001V6.7001L19.3 4.6001L12 16.5001L13 10.0001L7.7 8.2001Z" fill="black"/>
</g>
</g>
<defs>
<clipPath id="clip0_209_85">
<rect width="30" height="30" fill="white"/>
</clipPath>
</defs>
</svg>
