<svg width="17" height="17" viewBox="0 0 17 17" fill="none" xmlns="http://www.w3.org/2000/svg">
<path d="M5.31274 5.43288V4.7458C5.31274 3.15205 6.59483 1.58663 8.18858 1.43788C8.63141 1.39437 9.07844 1.44406 9.50091 1.58375C9.92338 1.72344 10.3119 1.95004 10.6415 2.24896C10.9711 2.54787 11.2345 2.91249 11.4147 3.31934C11.5949 3.72618 11.6879 4.16625 11.6877 4.61122V5.58871M6.37524 15.5833H10.6252C13.4727 15.5833 13.9827 14.4429 14.1315 13.0545L14.6627 8.80455C14.854 7.07621 14.3582 5.66663 11.3336 5.66663H5.66691C2.64233 5.66663 2.14649 7.07621 2.33774 8.80455L2.86899 13.0545C3.01774 14.4429 3.52774 15.5833 6.37524 15.5833Z" stroke="#323648" stroke-width="1.5" stroke-miterlimit="10" stroke-linecap="round" stroke-linejoin="round"/>
<path d="M10.9754 8.5H10.9825M6.01709 8.5H6.02276" stroke="#323648" stroke-width="2" stroke-linecap="round" stroke-linejoin="round"/>
</svg>
