<svg width="17" height="17" viewBox="0 0 17 17" fill="none" xmlns="http://www.w3.org/2000/svg">
<g clip-path="url(#clip0_37_3724)">
<path d="M15.5619 12.9838C15.5619 13.2388 15.5053 13.5009 15.3848 13.7559C15.2644 14.0109 15.1086 14.2517 14.9032 14.4784C14.5561 14.8609 14.1736 15.1372 13.7415 15.3142C13.3165 15.4913 12.8561 15.5834 12.3603 15.5834C11.6378 15.5834 10.8657 15.4134 10.0511 15.0663C9.2365 14.7192 8.42192 14.2517 7.61442 13.6638C6.79141 13.0618 6.01478 12.3988 5.29109 11.6805C4.5748 10.9594 3.91416 10.1851 3.31484 9.36425C2.734 8.55675 2.2665 7.74925 1.9265 6.94883C1.5865 6.14133 1.4165 5.36925 1.4165 4.63258C1.4165 4.15091 1.5015 3.6905 1.6715 3.2655C1.8415 2.83341 2.11067 2.43675 2.48609 2.08258C2.93942 1.63633 3.43525 1.41675 3.95942 1.41675C4.15775 1.41675 4.35609 1.45925 4.53317 1.54425C4.71734 1.62925 4.88025 1.75675 5.00775 1.94091L6.65109 4.25717C6.77859 4.43425 6.87067 4.59716 6.93442 4.753C6.99817 4.90175 7.03359 5.0505 7.03359 5.18508C7.03359 5.35508 6.984 5.52508 6.88484 5.688C6.79275 5.85091 6.65817 6.02091 6.48817 6.19091L5.94984 6.7505C5.87192 6.82841 5.8365 6.9205 5.8365 7.03383C5.8365 7.0905 5.84359 7.14008 5.85775 7.19675C5.879 7.25341 5.90025 7.29591 5.91442 7.33841C6.04192 7.57216 6.2615 7.87675 6.57317 8.24508C6.89192 8.61342 7.23192 8.98883 7.60025 9.36425C7.98275 9.73967 8.35109 10.0867 8.7265 10.4055C9.09484 10.7172 9.39942 10.9297 9.64025 11.0572C9.67567 11.0713 9.71817 11.0926 9.76775 11.1138C9.82442 11.1351 9.88109 11.1422 9.94484 11.1422C10.0653 11.1422 10.1573 11.0997 10.2353 11.0217L10.7736 10.4905C10.9507 10.3134 11.1207 10.1788 11.2836 10.0938C11.4465 9.99467 11.6094 9.94508 11.7865 9.94508C11.9211 9.94508 12.0628 9.97342 12.2186 10.0372C12.3744 10.1009 12.5373 10.193 12.7144 10.3134L15.059 11.978C15.2432 12.1055 15.3707 12.2542 15.4486 12.4313C15.5194 12.6084 15.5619 12.7855 15.5619 12.9838Z" stroke="#323648" stroke-width="1.5" stroke-miterlimit="10"/>
</g>
<defs>
<clipPath id="clip0_37_3724">
<rect width="17" height="17" fill="white"/>
</clipPath>
</defs>
</svg>
